<?xml version="1.0" encoding="utf-8"?>
<!-- Generator: Adobe Illustrator 16.0.0, SVG Export Plug-In . SVG Version: 6.00 Build 0)  -->
<!DOCTYPE svg PUBLIC "-//W3C//DTD SVG 1.1//EN" "http://www.w3.org/Graphics/SVG/1.1/DTD/svg11.dtd">
<svg version="1.1" xmlns="http://www.w3.org/2000/svg" xmlns:xlink="http://www.w3.org/1999/xlink" x="0px" y="0px" width="800px"
	 height="700px" viewBox="0 0 800 700" enable-background="new 0 0 800 700" xml:space="preserve">
<g id="Calque_1">
	<path fill="none" stroke="#787878" stroke-width="0.75" d="M188.6,346.4l-6.1-3.8l-2.2,0.6l0.1,0.1h-0.1l5,4.5L188.6,346.4z"/>
	<path fill="none" stroke="#787878" stroke-width="0.75" d="M178.7,343.8l0.7-0.3l0.8-0.1l-2.6-2.4L178.7,343.8z"/>
	<path fill="none" stroke="#787878" stroke-width="0.75" d="M184.7,356.9l-1.9,3.1l7.2,12.5l1.5-3.6l-1.1-8.301L184.7,356.9z"/>
	<path fill="none" stroke="#787878" stroke-width="0.75" d="M146.4,288.8l-1.1-3.5l-2.1,2.6l6.8,6.5l-0.2-3.5L146.4,288.8z"/>
	<path fill="none" stroke="#787878" stroke-width="0.75" d="M102.9,259.1l-3.2,0.4l0.9,3.8l3.6,1l4.4-1.3L102.9,259.1z"/>
	<path fill="#FFFFFF" stroke="#787878" stroke-width="0.75" d="M161.2,174.8h-3v1.8l1.7,2.7l3.2,0.3L161.2,174.8z"/>
	<path fill="none" stroke="#787878" stroke-width="0.75" d="M497.2,531.3L496.6,535l5.201,4.8l3.6-1.2l2.4-4.3l-3.701,1.5
		l-2.299-4.5H497.2z"/>
	<polyline fill="none" stroke="#787878" stroke-width="0.75" stroke-linecap="round" stroke-linejoin="round" points="180.2,343.4 
		180.3,343.3 180.4,343.3 180.3,343.2 177.6,340.8 177.6,341 178.7,343.8 179.4,343.5 	"/>
	<polyline fill="none" stroke="#787878" stroke-width="0.75" stroke-linecap="round" stroke-linejoin="round" points="497.2,531.3 
		501.801,531.3 504.1,535.8 507.801,534.3 505.4,538.6 501.801,539.8 496.6,535 497.2,531.3 	"/>
	<polyline fill="none" stroke="#787878" stroke-width="0.75" stroke-linecap="round" stroke-linejoin="round" points="99.7,259.5 
		100.6,263.3 104.2,264.3 108.6,263 102.9,259.1 99.7,259.5 	"/>
	<polyline fill="none" stroke="#787878" stroke-width="0.75" stroke-linecap="round" stroke-linejoin="round" points="602.1,552.3 
		598.9,551.1 596.2,553.4 596.7,573 587.1,571.5 583.1,576.9 571.1,581.699 570.2,584.9 567,585.199 564.5,588.4 564.801,592.3 
		560.4,597.9 560.4,598.1 559.801,601.199 562.7,600 567,604.8 561.2,609 562.4,615.199 571.2,620.101 568.301,621.9 565,631.3 
		573.1,628.5 574.1,634.9 571.1,642.8 581.801,644.9 576.301,648.601 576.1,652 581.4,656.9 594,660.8 595.4,663.9 598.801,665.3 
		605.4,648.699 601.7,648.4 604.6,646.199 607,640.101 606.2,630.699 606.1,630.4 606.2,623.4 612.2,610 608,580.9 603.4,574.5 
		604,562.6 602.1,552.3 	"/>
	<polyline fill="none" stroke="#787878" stroke-width="0.75" stroke-linecap="round" stroke-linejoin="round" points="182.8,360 
		190,372.5 191.5,368.9 190.4,360.6 184.7,356.9 182.8,360 	"/>
	<polyline fill="none" stroke="#787878" stroke-width="0.75" stroke-linecap="round" stroke-linejoin="round" points="177.4,340.8 
		178.7,343.9 179.4,343.5 180.2,343.4 177.6,341 177.4,340.8 	"/>
	<polyline fill="none" stroke="#787878" stroke-width="0.75" stroke-linecap="round" stroke-linejoin="round" points="182.5,342.6 
		180.3,343.2 180.2,343.3 180.3,343.3 185.3,347.8 188.6,346.4 182.5,342.6 	"/>
	<polygon fill="none" stroke="#787878" stroke-width="0.75" stroke-linecap="round" stroke-linejoin="round" points="405.4,609 
		395.7,606.5 388.7,607.699 379.6,612.5 379.6,615.8 372.5,616.4 367.4,612.3 356.7,609.9 353.2,610.1 348.2,614.5 344.6,614.3 
		341.9,608 332.1,605 334.2,599.6 334.2,599.6 322.3,593.9 318.6,594.1 317.4,597.3 311,588.9 303.9,589.3 298.4,584.4 287.3,581.5 
		279.7,578.9 276.9,580.4 277.3,587.8 274.8,590.199 267.7,589.8 256.7,590 253.9,587.6 240.1,589.5 227.6,578.4 227.4,578.3 
		220.8,581.699 218.2,580.1 215.5,581.9 206.7,574.699 203.8,569.5 196.8,569.8 185.9,565.6 179.3,562.1 179.1,558.3 175.8,559.3 
		175.2,563.4 170.9,562.4 169.4,559.199 172.4,556.6 174.5,549.9 172.9,546.699 165.4,545.199 162.9,547.6 162.4,544.1 155.9,541.1 
		162.9,535.8 168.1,528.8 168.2,528.699 172.4,520.8 184.8,464.6 184.7,459.3 188.3,451.5 195.5,452.5 195.2,449.3 190.2,443.5 
		185.7,452.3 192.7,396 196,389.5 197,392.6 209.1,404.5 211.9,413.199 214.3,409.5 213.6,406.4 213.6,406.3 211.3,398 199.6,385.4 
		190.8,379.9 189.3,375.1 194.7,371.4 198,365 196.2,359 199.3,358.4 194.7,349.5 191.4,348.4 196.5,337.6 193.3,337.1 192.5,340.2 
		187.2,335.9 180.6,334.6 178.8,330.7 173.4,329.4 164.3,321.9 161.9,314 150.2,300.3 149.8,295.3 158.5,286 153.1,280.4 146.5,278 
		149.9,276.5 150.6,269.1 158.2,266.2 150.1,266.9 144.5,271 142.2,268.7 135.4,267.6 132.8,260.6 137.8,255.8 136,252.9 
		139.4,252.7 136.3,250.9 122.4,252.1 117,247.8 124,248.7 126.3,246 123.9,243.2 119.8,242.6 118.1,245.4 114.6,240 116,246.6 
		113.3,244.5 109.7,245.4 106.6,248.1 108,251.3 105.6,248.7 106.4,244.5 104.1,241.4 103.8,238.2 106.5,236.8 103.5,238.2 
		99.4,236.4 97.7,233.5 100.1,231.1 96.8,230.4 96.1,227 96.6,233.6 93.6,235.1 90.8,233.4 90,224.7 89.7,228.2 85.5,229.9 
		82.3,229.1 83,226 80.1,227 79.6,223.8 79.6,227 76.5,227.7 71.2,221.1 66,222.9 62.7,220.7 62.7,221.2 58.6,225.8 50.3,225.1 
		51.6,219 47.4,212 36.7,208 38.4,205.2 52.5,203.8 55.3,205.3 57.1,202.5 56.1,198.9 50,195.3 46.9,195.1 44.9,198.1 42.2,192.3 
		43.9,188.2 45.8,190.9 52.3,192.2 56.5,191 58,193.8 64.7,195.4 57.7,192.4 61.2,191.7 57.9,190.3 58.4,187 51.7,188.6 52.3,184.8 
		56.5,182.8 42.7,187 39.7,185.6 36.7,186.9 34.7,184.3 36.2,174.3 38.4,171.5 47.8,172.4 44.9,170.9 56.3,164.8 58,167.7 
		74.2,162.9 74.3,170.2 76.1,166.6 78.6,169.6 79.3,165.8 82.5,165.1 87.9,168.4 88.1,168.4 91.6,167.9 91.9,161 97,156.8 
		98.6,159.6 108.6,155.5 109.2,159.5 114.5,155.9 113,163.3 114.9,159.9 118.3,159.6 117.6,162.8 120.9,163.4 126,172.3 126,175.8 
		130.6,178.7 131.6,182.8 143.6,172.8 147.7,172.4 148.8,175.4 152.3,173.8 153.4,177.3 157.9,176.9 158,174.8 158.2,174.8 
		161.2,174.8 163.1,179.6 163.2,179.8 165.8,181.9 165.5,181.4 162.9,175.6 167.4,171.3 171,170.4 170.7,176.8 183.6,176.8 
		191.6,175.9 192.7,172.5 189.9,174.3 187,172.9 182.3,162.4 184.8,156 185.4,149.2 183.2,146.1 184.7,134.8 175.1,124.5 172.3,113 
		174.4,110.8 173.8,105.3 170.2,103.3 170.4,100.1 183.1,105.3 190.5,104.8 193.3,102.8 200.6,103.5 201.7,106.6 199,115.4 
		206.2,127.3 206.4,127.2 212.2,124.6 222.9,128.4 236.9,129.9 246.4,133.9 257.2,130.9 262.7,126.1 270.4,124.4 270.5,124.3 
		272.3,123.7 272.1,123.6 262.2,121.3 260.3,118.8 266.8,104.7 282.7,96 307.5,89.9 319.7,81.4 319.9,81 327.2,71.1 330.4,72.7 
		327,66.5 327.4,63.2 331.5,61.6 329,59.7 328.5,55.5 329.2,48.8 332.3,50.8 329,46.9 329.1,26.7 335.6,21.1 351,16.2 369.2,11.7 
		372.4,13.6 375.2,20.3 374.1,26.8 375.5,29.8 379.2,29.8 382.4,35.6 385.8,37.1 392,32.8 398.6,32.2 402.9,37.2 402.4,40.5 
		405.9,50 409.4,51.3 412.7,48.8 413.9,51.9 420,53.3 422.5,63.5 424.9,61.3 431.1,62.8 437.9,61.5 442.4,67.1 445.6,66.4 
		443.301,73.6 446.7,79.6 443.1,86.4 442.9,86.7 447.1,88 447.4,87.9 450.6,87.3 456.7,89.2 466.5,84.8 468.4,77.6 473,72.7 
		476,74.5 473.1,80.2 473.1,84.8 476.301,91.3 475.2,98.6 481.9,98.4 489.4,105 496.2,106.7 496.2,110.3 499.801,109.9 503.7,118.1 
		504,118 510,117.3 511.4,114.1 519.1,114.1 523.1,117.5 528.801,120.1 532,119.9 536.9,116 549.4,118.9 552.7,121.3 554.6,127.8 
		563.6,138 566.7,138.8 567,135.6 570.2,133.8 573.6,135.4 576.1,139.8 578.9,138.4 586.7,139.8 593.801,135.1 603.2,143.5 
		603.4,143.5 619.7,144.1 629.301,147.5 624.9,159.4 613.1,174.8 611.5,192.4 604.9,207.7 604.801,208 607,219.6 604,236.9 
		607.2,245.6 604.7,247.9 604.5,251.4 601.2,251.5 600.7,255 597.7,256.1 589.1,256 590,252.7 586.7,252 582.7,252.5 582.4,252.5 
		578.301,257 578.1,257.3 577,260.6 581.9,264.7 579.301,267 579.5,270.2 566.4,286.5 556.7,293.1 557.6,304 544.5,316.1 
		543.5,319.6 540.5,329.7 540.7,329.8 544.6,332.1 543.2,339.9 536.9,343.9 536.301,349.5 536.301,349.6 536.6,349.5 544.1,348.5 
		552,342.5 549.301,339 552.4,332.5 556.4,334.1 562,329.4 571.4,328.8 575.2,329.5 574.7,332.7 578.801,338.8 576.2,345.7 585,354 
		588.7,359.199 587.7,362.699 578.4,371.699 578.2,371.9 578.2,372.1 578.7,375.5 582,378.5 588.2,381 587.5,384.5 589.9,390.699 
		598.2,396.5 595,402.199 596.301,405.199 594.1,409.3 572.4,418.6 572.5,418.6 575,424.5 578.1,424.6 579.1,432 584.9,435.699 
		591.7,436.1 596,446.6 592,446.5 589.9,448.9 589.801,449 589.7,449.199 588.2,455.8 585.7,457.9 590.1,464 588,469.5 
		588.2,469.699 595.1,478 602.1,479.4 612.4,484.9 625.7,480.1 630.2,486 628,490.9 621,500.601 620.5,508.699 604.2,517.601 
		603.1,522.199 596.6,525.3 594,529.9 591.7,533.9 585.7,534.699 578.7,543.8 582.7,545.699 580.2,551.699 576,551.3 573,554.1 
		566.6,555.6 566.5,558.699 558.2,557.3 555.9,563.6 554.6,560.4 548,558.6 538,561.5 538.301,558.3 531.4,554.3 531.301,554.199 
		528.2,555.1 517.301,552.4 512.9,542.6 498,544.3 492.9,538.1 489.801,537.9 488.4,540.699 490.801,543.3 479.9,544.5 
		475.801,543.6 476.4,540.4 474.1,537.699 458.1,537.199 457.801,537.199 454.5,536.4 451.301,531 451.2,530.8 441.7,533.5 
		429.4,542.4 422,550.6 414.4,550.6 408.301,555.1 405.301,558.199 398.9,570.199 398.4,581.199 398.9,601 	"/>
	<polyline fill="none" stroke="#787878" stroke-width="0.75" stroke-linecap="round" stroke-linejoin="round" points="63,217.2 
		64.9,217 63.3,213.8 63,217.2 	"/>
	<polyline fill="none" stroke="#787878" stroke-width="0.75" stroke-linecap="round" stroke-linejoin="round" points="63,217.2 
		61.8,217.4 62.7,220.7 62.7,220.7 	"/>
	
		<line fill="none" stroke="#787878" stroke-width="0.75" stroke-linecap="round" stroke-linejoin="round" x1="62.7" y1="220.7" x2="63" y2="217.2"/>
</g>
<g id="Calque_2">
</g>
<g id="Calque_3">
	<g>
		<polyline fill="none" stroke="#787878" stroke-width="0.75" stroke-linecap="round" stroke-linejoin="round" points="
			101.875,562.484 99.984,558.705 97.604,558.705 94.244,552.545 90.884,549.185 91.934,544.424 88.575,541.625 85.214,541.625 
			83.325,540.154 78.634,540.645 74.784,537.845 71.075,538.754 66.734,539.174 63.444,542.604 58.684,543.515 59.175,549.674 
			54.484,550.164 54.975,556.324 57.774,558.215 59.734,563.395 57.774,565.774 62.954,571.024 68.274,571.445 71.494,576.205 
			86.194,580.055 98.584,577.185 98.584,573.824 99.984,567.244 101.875,562.484 		"/>
	</g>
	<g>
		<g>
			<path fill="none" stroke="#787878" stroke-width="0.75" stroke-linecap="round" stroke-linejoin="round" d="M70.83,603.574
				l-2.45,4.13l-2.03,1.681l-0.84,1.189l-0.42,3.71l-0.42,0.84l2.45,0.841l2.52,1.189h2.871l0.84,4.55v5.811l2.03,3.64l2.589,2.94
				l0.84,4.55l-2.52,1.19l-3.78-2.87v-2.45l-5.74-0.91l1.611,1.68l1.609,3.36h2.521l-0.35,1.96l-2.521,2.17h3.711v2.8h2.03
				l0.909,1.681l3.291,0.42l0.35-2.521h3.009l1.96,2.101v-1.681l-1.19-2.03l-1.68-2.1l1.259-2.449l2.03-2.03v-2.45l2.1-0.91
				l1.19-2.03l-3.29-4.06l-0.84-2.52l2.59-2.871l4.13-3.639v-3.361l-6.3-3.709l-2.87-0.42l-1.68,1.68l-4.061-1.68l-0.909-3.291
				l-2.871-3.709L70.83,603.574z"/>
		</g>
	</g>
	<polyline fill="none" stroke="#787878" stroke-width="0.75" stroke-linecap="round" stroke-linejoin="round" points="
		91.13,614.565 84.9,610.854 82.03,610.435 80.35,612.044 76.22,610.435 75.38,607.145 72.439,603.435 70.83,603.015 68.38,607.145 
		66.28,608.824 65.439,610.015 65.02,613.794 64.669,614.565 67.12,615.335 69.57,616.595 72.439,616.595 73.28,621.145 
		73.28,626.954 75.38,630.595 77.97,633.465 78.739,638.015 76.22,639.274 72.439,636.404 72.439,633.954 66.7,633.044 
		68.38,634.724 69.989,638.015 72.439,638.015 72.089,640.044 69.57,642.145 73.28,642.145 73.28,645.015 75.38,645.015 
		76.22,646.765 79.51,647.115 79.93,644.595 82.87,644.595 84.9,646.765 84.9,645.015 83.639,642.985 82.03,640.954 83.29,638.435 
		85.32,636.404 85.32,633.954 87.419,633.044 88.61,631.015 85.32,626.954 84.48,624.435 87,621.565 91.13,617.925 91.13,614.565 	
		"/>
	<g>
		<g>
			<path fill="none" stroke="#787878" stroke-width="0.75" stroke-linecap="round" stroke-linejoin="round" d="M92.215,334.236
				l-3.64-3.15l-5.25-3.011l-5.67-1.05l-1.609-2.73v-4.619l-2.03-3.57l-3.15-3.78l-4.13,5.811l0.49,3.08l2.59,1.609l1.05,2.591
				l-2.52,2.1l-3.221,1.051l-0.56,3.5l-3.5,0.629l-2.17-4.129l-5.741-3.15l-5.18-0.49l-2.029,4.619v4.691l2.52,6.229v7.84l2.66,4.13
				l2.521,5.74l2.1-0.49l8.82-5.74v-9.449l-2.03-1.471v-5.81c0.911-0.491,1.75-0.979,2.59-1.54l2.73,3.641l3.991,1.05l10.989-3.642
				l5.25,0.491L92.215,334.236z"/>
			<path fill="none" stroke="#787878" stroke-width="0.75" stroke-linecap="round" stroke-linejoin="round" d="M98.375,329.545
				l2.66,0.49l4.55-1.469l2.1-1.051l-2.589-1.541L98.375,329.545z"/>
			<path fill="none" stroke="#787878" stroke-width="0.75" stroke-linecap="round" stroke-linejoin="round" d="M92.635,359.225
				l-3.081-3.779l-3.639-2.029l-5.25,5.809l1.61,4.551l2.52,0.49l2.659,1.12l4.13-3.64L92.635,359.225z"/>
		</g>
		<polyline fill="none" stroke="#787878" stroke-width="0.75" stroke-linecap="round" stroke-linejoin="round" points="
			92.285,359.366 89.204,355.725 85.635,353.625 80.385,359.366 81.995,363.986 84.515,364.475 87.104,365.525 91.304,362.025 
			92.285,359.366 		"/>
		<path fill="none" stroke="#787878" stroke-width="0.75" stroke-linecap="round" stroke-linejoin="round" d="M70.515,325.625
			l-2.52,2.03l-3.22,1.12l-0.56,3.5l-3.57,0.699l-2.1-4.199l-5.67-3.15l-5.25-0.629l-2.029,4.689v4.76l2.52,6.23v7.699l2.73,4.271
			l2.52,5.671l2.1-0.491l8.75-5.739v-9.311l-1.96-1.68v-5.67c0.841-0.49,1.68-0.98,2.521-1.54l2.729,3.64l4.061,0.98l10.919-3.57
			l5.25,0.49l4.13-0.98l-3.64-3.15l-5.18-3.149l-5.741-0.979l-1.609-2.73v-4.619l-2.03-3.57l-3.15-3.711l-4.2,5.74l0.63,3.15
			l2.589,1.54L70.515,325.625"/>
		<polyline fill="none" stroke="#787878" stroke-width="0.75" stroke-linecap="round" stroke-linejoin="round" points="
			98.095,329.686 100.615,330.246 105.304,328.775 107.404,327.655 104.745,326.116 98.095,329.686 		"/>
	</g>
	<g>
		<path fill="none" stroke="#787878" stroke-width="0.75" stroke-linecap="round" stroke-linejoin="round" d="M73.709,389.25h-5.74
			l-3.99,1.259l-1.82,3.991l1.82,4.479l3.5,1.261l0.49,2.239l0.419,5.74l3.081,4.41l3.5,0.84l0.98,2.24l3.85,0.841l3.22-0.841
			l1.261,2.66l2.239,1.75l-2.239,0.84l-8.331,0.42v2.66l0.84,2.66l2.17,3.5l0.84-0.42l2.31-1.68h3.5l6.16,1.26l2.59,1.33l2.24,0.42
			l-1.4,3.149l2.8,2.591l2.589-2.17l2.661-5.32v-3.92h-1.331l-0.91-4.9l-4.41-6.65l-1.82-1.26l0.979-1.4v-1.679l-2.24,0.839H91.35
			l-0.49-2.17l2.24-0.91v-2.239l-2.73-0.42v-1.75l2.24-1.82l2.17,1.82l0.419-1.82l2.31-1.26l-0.91-2.24l-3.5,2.24h-2.73l-2.1,1.26
			l-7.07-8.75l-3.99-0.421L73.709,389.25z"/>
	</g>
	<polyline fill="none" stroke="#787878" stroke-width="0.75" stroke-linecap="round" stroke-linejoin="round" points="
		96.319,397.789 92.819,399.959 90.089,399.959 87.989,401.219 80.919,392.469 76.93,392.05 73.43,389.459 67.619,389.459 
		63.63,390.649 61.88,394.709 63.63,399.119 67.199,400.379 67.619,402.619 68.109,408.43 71.259,412.839 74.689,413.68 
		75.669,415.85 79.589,416.759 82.669,415.85 84,418.509 86.239,420.259 84,421.17 75.669,421.589 75.669,424.25 76.509,426.908 
		78.68,430.408 79.589,429.989 81.83,428.239 85.33,428.239 91.489,429.5 94.08,430.899 96.319,431.319 94.919,434.469 
		97.649,436.989 100.309,434.819 102.969,429.5 102.969,425.579 101.639,425.579 100.729,420.68 96.319,414.1 94.569,412.839 
		95.409,411.439 95.409,409.689 93.239,410.529 91.069,410.529 90.509,408.43 92.819,407.52 92.819,405.279 90.089,404.789 
		90.089,403.039 92.33,401.219 94.569,403.039 94.919,401.219 97.229,399.959 96.319,397.789 	"/>
	<g>
		<polyline fill="none" stroke="#787878" stroke-width="0.75" stroke-linecap="round" stroke-linejoin="round" points="
			111.22,484.611 108.21,479.99 105.55,479.99 103.59,479.01 91.97,468.23 		"/>
		
			<line fill="none" stroke="#787878" stroke-width="0.75" stroke-linecap="round" stroke-linejoin="round" x1="91.97" y1="468.23" x2="90.22" y2="466.62"/>
		<polyline fill="none" stroke="#787878" stroke-width="0.75" stroke-linecap="round" stroke-linejoin="round" points="
			90.22,466.62 81.47,466.131 78.46,464.101 77.69,463.82 		"/>
		<polyline fill="none" stroke="#787878" stroke-width="0.75" stroke-linecap="round" stroke-linejoin="round" points="
			91.97,468.23 90.36,466.62 90.22,466.62 		"/>
		
			<line fill="none" stroke="#787878" stroke-width="0.75" stroke-linecap="round" stroke-linejoin="round" x1="77.69" y1="463.82" x2="72.72" y2="462"/>
		<polyline fill="none" stroke="#787878" stroke-width="0.75" stroke-linecap="round" stroke-linejoin="round" points="72.72,462 
			64.53,473.76 64.53,483.07 66.63,488.74 71.74,495.951 69.08,502.111 69.08,508.201 65.58,513.87 61.45,515.411 69.08,518 
			72.72,516.461 88.12,516.951 94.84,514.431 95.399,510.721 106.67,492.24 110.66,488.181 111.22,484.611 		"/>
	</g>
</g>
<g id="Calque_4">
</g>
</svg>
